<svg xmlns="http://www.w3.org/2000/svg"  viewBox="0 0 127.008 33" overflow="visible">
	<g>
		<g>
			<path d="M 100.167 0.029 C 100.758 0.336 101.219 0.66 101.539 1.251 C 101.619 1.543 101.655 1.808 101.656 2.061 C 101.659 2.615 101.491 3.111 101.234 3.698 C 100.939 4.188 100.602 4.638 100.253 5.092 L 99.966 5.472 C 99.224 6.453 98.458 7.416 97.685 8.373 C 97.139 9.053 96.617 9.749 96.1 10.452 C 95.859 10.778 95.618 11.104 95.376 11.431 L 94.965 11.988 C 94.693 12.357 94.422 12.727 94.151 13.097 C 93.726 13.689 93.316 14.288 92.929 14.909 C 92.842 15.001 92.76 15.069 92.676 15.121 C 92.376 15.546 92.082 15.973 91.795 16.406 C 91.61 16.71 91.421 17.012 91.229 17.312 L 91.047 17.598 C 90.995 17.679 90.944 17.757 90.893 17.834 C 90.728 18.109 90.567 18.387 90.409 18.668 L 90.224 18.994 C 89.861 19.861 90.097 20.84 90.352 21.704 C 90.588 22.593 90.548 23.375 90.329 24.132 C 90.311 24.237 90.276 24.338 90.228 24.447 C 90.044 24.966 89.782 25.479 89.473 26.014 C 89.09 26.617 88.704 27.062 88.252 27.477 L 88.275 27.5 L 87.935 27.756 C 87.675 27.974 87.393 28.192 87.078 28.428 L 87.118 28.448 L 95.898 28.751 C 95.746 29.21 95.746 29.21 95.288 29.506 C 93.536 30.322 91.555 30.529 89.647 30.585 L 89.647 31.043 L 81.262 31.043 L 81.262 30.585 L 80.671 30.613 C 78.911 30.611 76.174 30.39 74.81 29.209 C 74.553 28.904 74.553 28.904 74.553 28.599 L 81.719 28.446 L 81.262 27.376 C 80.849 25.612 81.217 23.84 81.943 22.22 C 82.018 22.044 82.096 21.869 82.176 21.694 C 82.179 21.701 82.181 21.707 82.184 21.713 C 82.226 21.628 82.27 21.544 82.314 21.46 C 82.962 20.446 83.83 19.509 84.921 18.974 C 85.426 18.869 85.925 18.789 86.436 18.723 C 87.473 18.561 88.14 18.139 88.768 17.294 L 89.066 16.768 L 89.237 16.469 C 89.427 16.134 89.614 15.798 89.8 15.46 L 90.005 15.091 C 90.205 14.732 90.403 14.371 90.6 14.01 C 90.887 13.422 91.212 12.851 91.524 12.282 C 91.563 12.21 91.602 12.138 91.641 12.067 C 92.265 10.885 92.877 9.697 93.488 8.508 C 93.767 7.967 94.046 7.426 94.325 6.886 L 94.604 6.347 C 94.814 5.941 95.024 5.535 95.235 5.129 C 95.572 4.465 95.911 3.802 96.25 3.139 C 96.265 3.109 96.279 3.08 96.294 3.05 C 96.422 2.794 96.55 2.542 96.682 2.299 C 96.746 2.175 96.811 2.052 96.876 1.928 L 97.065 1.567 C 97.742 0.53 98.568 -0.004 99.696 0 C 99.846 -0.001 100.003 0.009 100.167 0.029 Z M 68.76 6.722 C 79.726 6.722 80.936 6.722 82.482 8.013 C 82.581 8.089 82.682 8.168 82.786 8.25 L 82.762 8.256 C 82.867 8.35 82.976 8.45 83.091 8.556 C 83.464 8.986 83.742 9.426 84.006 9.931 L 84.196 10.261 C 84.902 11.688 84.864 13.638 84.378 15.135 C 83.739 16.596 82.638 17.811 81.199 18.513 C 80.077 18.951 79.089 19.026 77.892 19.004 L 77.335 19.001 C 76.754 18.998 76.173 18.99 75.592 18.983 C 75.196 18.98 74.799 18.977 74.403 18.974 C 73.437 18.968 72.471 18.957 71.504 18.944 C 71.5 18.617 71.497 18.289 71.495 17.961 L 71.489 17.408 C 71.504 16.958 71.504 16.958 71.657 16.806 C 71.897 16.792 72.137 16.785 72.378 16.786 L 72.844 16.784 L 73.352 16.784 C 73.706 16.781 74.06 16.778 74.414 16.775 C 74.973 16.771 75.532 16.767 76.091 16.767 C 76.63 16.767 77.168 16.761 77.707 16.755 L 78.207 16.759 C 79.318 16.741 80.188 16.532 81.109 15.889 C 82.153 14.787 82.398 13.795 82.379 12.292 C 82.31 11.567 82.104 11.155 81.719 10.542 L 81.584 10.223 C 81.185 9.538 79.881 9.255 79.28 9.014 L 70.894 8.861 L 70.894 28.569 L 68.76 28.569 Z M 9.91 9.165 C 11.289 10.276 12.13 11.674 12.349 13.443 L 12.349 14.207 L 10.215 14.207 L 9.967 13.28 C 9.611 12.129 9.169 11.415 8.138 10.788 C 7.218 10.345 6.272 10.196 5.279 10.497 C 4.171 10.962 3.361 11.541 2.859 12.663 C 2.502 13.662 2.546 14.582 2.897 15.582 C 3.195 16.087 3.195 16.087 3.507 16.498 L 3.735 16.806 C 3.865 16.89 3.888 16.997 3.964 17.035 C 3.993 17.049 4.019 17.076 4.05 17.108 L 4.394 17.323 L 4.732 17.488 C 5.413 17.781 6.101 17.846 6.832 17.931 C 8.902 18.213 10.339 18.968 11.683 20.625 C 12.687 22.112 12.806 23.769 12.654 25.512 C 12.275 27.389 11.249 28.643 9.758 29.79 C 8.345 30.707 6.624 30.946 4.99 30.602 C 3.256 30.116 1.969 29.28 0.915 27.804 C 0.25 26.599 0 25.673 0 24.29 L 2.134 24.29 L 2.306 25.13 C 2.605 26.315 3.088 27.102 4.107 27.785 C 5.255 28.433 6.42 28.605 7.69 28.262 C 8.746 27.869 9.62 27.101 10.148 26.104 C 10.593 24.911 10.58 23.54 10.053 22.38 C 9.443 21.333 8.623 20.692 7.471 20.318 C 6.975 20.222 6.476 20.166 5.974 20.108 C 4.831 19.954 3.862 19.768 2.897 19.096 L 2.607 18.901 C 1.497 18.059 0.759 16.776 0.457 15.429 C 0.247 13.576 0.436 11.998 1.501 10.432 C 3.581 7.839 7.158 7.39 9.91 9.165 Z M 108.247 14.054 C 109.139 14.793 109.957 15.641 110.534 16.651 C 110.382 17.109 110.382 17.109 110 17.321 L 109.534 17.52 L 109.066 17.722 L 108.705 17.873 L 108.458 17.538 C 107.679 16.525 106.966 15.82 105.808 15.276 L 105.487 15.12 C 104.107 14.554 102.5 14.639 101.11 15.114 C 99.548 15.795 98.395 16.961 97.733 18.525 C 97.198 20.051 97.227 21.738 97.88 23.221 C 98.738 24.868 100.06 25.949 101.811 26.517 C 103.276 26.797 104.806 26.705 106.113 25.971 L 106.467 25.78 C 107.35 25.251 107.922 24.569 108.523 23.77 C 108.572 23.701 108.624 23.632 108.679 23.561 C 108.687 23.549 108.696 23.538 108.705 23.526 L 110.534 24.443 C 109.802 26.277 108.323 27.512 106.56 28.325 C 104.403 29.144 102.013 29.144 99.887 28.229 C 98.753 27.656 97.762 26.881 96.976 25.931 C 96.685 25.637 96.435 25.314 96.203 24.903 L 96.203 24.829 C 95.95 24.399 95.735 23.942 95.559 23.461 C 94.888 21.237 95.01 19.055 95.984 16.928 C 97.098 14.865 98.804 13.552 100.989 12.79 C 103.5 12.088 106.113 12.588 108.247 14.054 Z M 113.286 2.444 L 115.421 2.444 C 115.449 4.226 115.476 6.007 115.502 7.789 C 115.558 11.558 115.597 15.327 115.573 19.097 C 116.034 18.744 116.495 18.391 116.956 18.038 C 117.144 17.874 117.339 17.719 117.547 17.569 L 117.555 17.577 C 118.272 17.027 118.987 16.476 119.702 15.924 C 119.878 15.759 120.073 15.601 120.292 15.431 C 120.292 15.443 120.292 15.455 120.292 15.468 C 120.849 15.035 121.407 14.602 121.963 14.168 L 122.301 13.903 L 122.601 13.669 L 122.891 13.444 L 123.181 13.189 C 123.589 12.93 123.847 12.933 124.328 12.941 L 124.801 12.946 C 124.963 12.95 125.125 12.954 125.293 12.958 L 125.791 12.964 C 126.197 12.969 126.602 12.977 127.008 12.986 C 126.481 13.535 125.939 14.005 125.331 14.466 L 124.802 14.869 L 124.531 15.074 C 124.11 15.395 123.691 15.718 123.272 16.042 L 122.774 16.426 L 122.526 16.617 C 122.288 16.8 122.051 16.983 121.813 17.166 C 120.74 17.992 119.671 18.821 118.604 19.655 L 118.279 19.909 L 117.943 20.183 C 117.555 20.472 117.555 20.472 117.035 20.76 C 116.346 21.162 115.713 21.552 115.465 22.348 C 115.299 23.354 115.341 24.365 115.373 25.38 C 115.376 25.69 115.377 25.999 115.378 26.309 C 115.382 27.063 115.398 27.816 115.421 28.569 L 113.439 28.569 C 113.411 25.677 113.383 22.785 113.357 19.893 C 113.304 14.077 113.26 8.261 113.286 2.444 Z M 28.016 15.487 C 29.034 16.205 30.244 17.166 30.789 18.319 C 30.777 18.634 30.777 18.634 30.636 18.93 C 30.332 19.157 30.332 19.157 29.96 19.35 L 29.589 19.549 C 29.264 19.694 29.264 19.694 28.959 19.694 C 28.804 19.466 28.654 19.234 28.511 18.997 C 27.894 18.088 27.176 17.604 26.215 17.097 C 26.12 17.042 26.025 16.987 25.927 16.93 C 24.792 16.378 23.156 16.465 21.945 16.744 C 21.567 16.886 21.23 17.049 20.879 17.25 L 20.515 17.451 C 19.222 18.237 18.377 19.445 17.893 20.875 C 17.563 22.692 17.812 24.272 18.735 25.853 C 19.684 27.092 20.994 28.118 22.556 28.402 C 24.479 28.565 26.086 28.284 27.587 27.027 C 28.365 26.256 28.365 26.256 28.959 25.347 C 29.663 25.548 30.194 25.838 30.789 26.264 C 30.538 27.555 29.36 28.567 28.35 29.319 C 26.353 30.56 24.097 31.027 21.794 30.522 C 19.638 29.913 17.784 28.663 16.61 26.722 C 15.521 24.676 15.146 22.438 15.791 20.181 C 16.554 18.033 17.818 16.252 19.857 15.144 C 22.532 13.939 25.466 13.955 28.016 15.487 Z M 0 31.319 L 46.501 31.319 L 46.501 33 L 0 33 Z M 59.265 12.91 L 59.672 12.914 C 61.297 12.955 62.495 13.43 63.715 14.505 L 63.995 14.737 C 65.219 15.838 65.783 17.335 66.002 18.936 C 66.041 19.687 66.038 20.438 66.032 21.19 L 66.031 21.831 C 66.029 22.388 66.027 22.945 66.023 23.502 C 66.02 24.073 66.019 24.643 66.017 25.214 C 66.014 26.329 66.008 27.445 66.002 28.561 L 63.868 28.561 L 63.868 27.664 C 63.868 26.68 63.863 25.696 63.856 24.711 C 63.851 24.115 63.848 23.52 63.849 22.924 C 63.85 22.347 63.847 21.771 63.84 21.194 C 63.839 20.976 63.839 20.757 63.84 20.538 C 63.85 18.946 63.606 17.586 62.54 16.339 C 61.66 15.477 60.505 15.086 59.294 15.04 C 58.034 15.088 56.949 15.509 56.021 16.372 C 55.175 17.354 54.859 18.336 54.841 19.611 L 54.832 20.213 L 54.824 20.862 L 54.815 21.527 C 54.806 22.11 54.799 22.693 54.791 23.275 C 54.784 23.87 54.775 24.465 54.767 25.06 C 54.755 25.881 54.744 26.702 54.733 27.523 L 54.733 28.569 L 52.599 28.569 L 52.599 28.561 L 52.586 28.561 C 52.437 26.677 52.424 24.811 52.47 22.922 C 52.481 22.466 52.489 22.01 52.497 21.553 C 52.553 18.859 52.722 16.742 54.65 14.698 C 55.973 13.48 57.487 12.889 59.265 12.91 Z M 119.224 19.708 C 120.022 20.338 120.627 21.022 121.258 21.816 C 121.729 22.396 122.239 22.937 122.75 23.48 C 123.471 24.247 124.182 25.018 124.866 25.819 L 125.325 26.347 L 125.828 26.927 L 126.072 27.206 C 126.308 27.48 126.529 27.738 126.715 28.027 C 126.811 28.105 126.906 28.184 127 28.264 L 127 28.569 L 127 28.569 C 127 28.569 127 28.569 127 28.569 C 125.053 28.801 124.772 28.835 124.264 28.569 L 124.256 28.569 L 124.256 28.565 C 124.172 28.521 124.083 28.469 123.978 28.409 C 123.416 27.93 123.003 27.336 122.579 26.736 C 122.407 26.536 122.232 26.339 122.054 26.144 C 121.735 25.776 121.419 25.405 121.104 25.033 C 120.951 24.853 120.798 24.673 120.644 24.492 L 120.41 24.217 C 119.769 23.467 119.105 22.74 118.423 22.027 C 118.255 21.848 118.117 21.698 118.001 21.535 C 117.849 21.378 117.829 21.317 117.7 20.931 C 117.7 20.931 117.7 20.931 117.7 20.931 L 117.7 20.931 C 117.7 20.931 117.7 20.931 117.7 20.931 L 118.462 20.319 L 118.462 20.319 Z" fill="rgb(230, 230, 230)">
			</path>
			<path d="M 45.688 15.88 C 47.162 17.118 48.059 18.533 48.553 20.241 C 50.071 23.112 49.093 26.85 48.89 30.252 L 48.89 31.311 L 126.035 31.311 L 126.035 32.992 L 46.755 32.992 L 46.603 21.38 C 45.869 19.359 45.219 18.069 43.331 17.054 C 41.891 16.434 40.172 16.4 38.684 16.883 C 37.054 17.586 35.861 18.828 35.178 20.473 C 34.738 22.036 34.831 23.799 35.543 25.254 C 36.445 26.809 37.608 27.819 39.355 28.336 C 40.975 28.638 42.465 28.441 43.885 27.601 C 44.616 27.09 45.182 26.454 45.754 25.774 L 45.993 25.505 L 46.145 25.505 C 46.391 28.327 46.391 28.327 45.875 29.138 C 45.467 29.429 45.09 29.607 44.621 29.783 L 44.11 30.006 C 42.056 30.862 40.034 30.947 37.912 30.242 C 35.758 29.338 34.218 27.833 33.306 25.679 C 32.479 23.5 32.464 21.167 33.422 19.018 C 34.542 16.848 36.108 15.38 38.456 14.606 C 40.976 13.926 43.541 14.393 45.688 15.88 Z M 81.719 28.279 L 82.024 28.279 L 82.024 28.585 L 82.333 28.584 C 83.627 28.58 84.922 28.577 86.217 28.575 L 86.528 28.575 C 89.654 28.571 92.775 28.594 95.898 28.737 C 95.745 29.196 95.745 29.196 95.288 29.492 C 93.536 30.309 91.555 30.515 89.647 30.571 L 89.647 31.029 L 81.262 31.029 L 81.262 30.571 L 80.671 30.6 C 78.911 30.597 76.174 30.376 74.81 29.195 C 74.553 28.89 74.553 28.89 74.553 28.585 L 81.719 28.432 Z" fill="rgb(222,32,38)">
			</path>
		</g>
	</g>
</svg>
